<?xml version="1.0" encoding="UTF-8" standalone="no"?>
<!DOCTYPE svg PUBLIC "-//W3C//DTD SVG 1.0//EN" "http://www.w3.org/TR/2001/REC-SVG-20010904/DTD/svg10.dtd">
<svg xmlns="http://www.w3.org/2000/svg" xmlns:xlink="http://www.w3.org/1999/xlink" fill-rule="evenodd" height="100%" preserveAspectRatio="none" stroke-linecap="round" viewBox="0 0 720 540" width="100%">
<style type="text/css">
.brush0 { fill: rgb(255,255,255); }
.pen0 { stroke: rgb(0,0,0); stroke-width: 1; stroke-linejoin: round; }
.pen1 { stroke: none; }
.brush1 { fill: rgb(79,129,189); }
.pen2 { stroke: rgb(56,93,138); stroke-width: 1; stroke-linejoin: round; }
.brush2 { fill: rgb(56,93,138); }
.font0 { font-size: 10px; font-family: Arial, sans-serif; }
.font1 { font-weight: bold; font-size: 3px; font-family: System, sans-serif; }
.brush3 { fill: rgb(149,179,215); }
.font2 { font-weight: bold; font-size: 10px; font-family: Arial, sans-serif; }
</style>
<g>
<polygon class="pen1 brush0" points="0,0 0,540 720,540 720,0 0,0"/>
<polygon class="pen1 brush1" points="496,247 496,293 570,293 570,247 496,247"/>
<path class="pen2 brush2" d="M 495,247  L 495,247 496,247 570,247 570,247 570,247 570,293 570,293 570,294 496,294 495,293 495,293 495,247 z M 497,293  L 496,292 570,292 569,293 569,247 570,248 496,248 497,247 497,293 z" fill-rule="nonzero"/>
</g>
<g>
<text class="font0" fill="rgb(255,255,255)" stroke="none" style="dominant-baseline: alphabetic;" x="509 517 521 527 534 538 545 551" xml:lang="en" xml:space="preserve" y="267">Progress</text>
</g>
<g>
<text class="font0" fill="rgb(255,255,255)" stroke="none" style="dominant-baseline: alphabetic;" x="519 527 533 540" xml:lang="en" xml:space="preserve" y="282">Page</text>
</g>
<g>
<polygon class="pen1 brush1" points="388,247 472,247 472,264 485,264 485,259 502,270 485,281 485,276 472,276 472,293 388,293"/>
<path class="pen2 brush2" d="M 387,247  L 388,247 388,247 472,247 473,247 473,247 473,264 472,264 485,264 485,264 485,259 485,258 485,258 485,258 486,258 502,269 502,270 502,271 486,282 485,282 485,282 485,282 485,281 485,276 485,277 472,277 473,276 473,293 473,293 472,294 388,294 388,293 387,293 387,247 z M 389,293  L 388,292 472,292 471,293 471,276 472,275 472,275 485,275 486,275 486,276 486,281 485,281 501,269 501,271 485,259 486,259 486,264 486,265 485,265 472,265 472,265 471,264 471,247 472,248 388,248 389,247 389,293 z" fill-rule="nonzero"/>
</g>
<g>
<text class="font0" fill="rgb(255,255,255)" stroke="none" style="dominant-baseline: alphabetic;" x="397 405 412 418 422 424 428 438 445 448 451 457" xml:lang="en" xml:space="preserve" y="267">Confirmation</text>
</g>
<g>
<text class="font0" fill="rgb(255,255,255)" stroke="none" style="dominant-baseline: alphabetic;" x="416 424 431 438" xml:lang="en" xml:space="preserve" y="282">Page</text>
</g>
<g>
<polygon class="pen1 brush1" points="298,247 362,247 362,264 378,264 378,259 394,270 378,281 378,276 362,276 362,293 298,293"/>
<path class="pen2 brush2" d="M 297,247  L 297,247 298,247 362,247 362,247 363,247 363,264 362,264 378,264 377,264 377,259 377,258 377,258 378,258 378,258 394,269 395,270 394,271 378,282 378,282 377,282 377,282 377,281 377,276 378,277 362,277 363,276 363,293 362,293 362,294 298,294 297,293 297,293 297,247 z M 298,293  L 298,292 362,292 361,293 361,276 361,275 362,275 378,275 378,275 378,276 378,281 377,281 393,269 393,271 377,259 378,259 378,264 378,265 378,265 362,265 361,265 361,264 361,247 362,248 298,248 298,247 298,293 z" fill-rule="nonzero"/>
</g>
<g>
<text class="font0" fill="rgb(255,255,255)" stroke="none" style="dominant-baseline: alphabetic;" x="305 312 319 323 326 332 339 341 348" xml:lang="en" xml:space="preserve" y="267">Variables</text>
</g>
<g>
<text class="font0" fill="rgb(255,255,255)" stroke="none" style="dominant-baseline: alphabetic;" x="316 324 330 337" xml:lang="en" xml:space="preserve" y="282">Page</text>
</g>
<g>
<polygon class="pen1 brush1" points="212,247 271,247 271,264 287,264 287,259 303,270 287,281 287,276 271,276 271,293 212,293"/>
<path class="pen2 brush2" d="M 212,247  L 212,247 212,247 271,247 272,247 272,247 272,264 271,264 287,264 286,264 286,259 286,258 287,258 287,258 287,258 304,269 304,270 304,271 287,282 287,282 287,282 286,282 286,281 286,276 287,277 271,277 272,276 272,293 272,293 271,294 212,294 212,293 212,293 212,247 z M 213,293  L 212,292 271,292 271,293 271,276 271,275 271,275 287,275 287,275 288,276 288,281 287,281 303,269 303,271 287,259 288,259 288,264 287,265 287,265 271,265 271,265 271,264 271,247 271,248 212,248 213,247 213,293 z" fill-rule="nonzero"/>
</g>
<g>
<text class="font0" fill="rgb(255,255,255)" stroke="none" style="dominant-baseline: alphabetic;" x="220 228 232 239 242 248 254 258" xml:lang="en" xml:space="preserve" y="267">Projects</text>
</g>
<g>
<text class="font0" fill="rgb(255,255,255)" stroke="none" style="dominant-baseline: alphabetic;" x="228 236 243 249" xml:lang="en" xml:space="preserve" y="282">Page</text>
</g>
<g>
<polygon class="pen1 brush1" points="127,247 186,247 186,264 202,264 202,259 218,270 202,281 202,276 186,276 186,293 127,293"/>
<path class="pen2 brush2" d="M 127,247  L 127,247 127,247 186,247 187,247 187,247 187,264 186,264 202,264 201,264 201,259 201,258 202,258 202,258 202,258 219,269 219,270 219,271 202,282 202,282 202,282 201,282 201,281 201,276 202,277 186,277 187,276 187,293 187,293 186,294 127,294 127,293 127,293 127,247 z M 128,293  L 127,292 186,292 186,293 186,276 186,275 186,275 202,275 202,275 203,276 203,281 201,281 218,269 218,271 201,259 203,259 203,264 202,265 202,265 186,265 186,265 186,264 186,247 186,248 127,248 128,247 128,293 z" fill-rule="nonzero"/>
</g>
<g>
<text class="font0" fill="rgb(255,255,255)" stroke="none" style="dominant-baseline: alphabetic;" x="136 144 148 155 162 168 174" xml:lang="en" xml:space="preserve" y="267">Product</text>
</g>
<g>
<text class="font0" fill="rgb(255,255,255)" stroke="none" style="dominant-baseline: alphabetic;" x="143 151 158 164" xml:lang="en" xml:space="preserve" y="282">Page</text>
</g>
<g>
<polygon class="pen1 brush3" points="123,179 191,179 191,225 164,225 164,238 171,238 157,253 143,238 150,238 150,225 123,225"/>
<path class="pen2 brush2" d="M 123,179  L 123,179 123,179 191,179 191,179 191,179 191,225 191,225 191,225 164,225 165,225 165,238 164,237 171,237 171,237 171,237 171,238 171,238 158,254 157,254 156,254 143,238 143,238 143,237 143,237 143,237 150,237 149,238 149,225 150,225 123,225 123,225 123,225 123,179 z M 124,225  L 123,224 150,224 150,224 151,225 151,238 150,238 150,238 143,238 144,237 158,253 156,253 170,237 171,238 164,238 164,238 163,238 163,225 164,224 164,224 191,224 190,225 190,179 191,180 123,180 124,179 124,225 z" fill-rule="nonzero"/>
</g>
<g>
<text class="font2" fill="rgb(31,73,125)" stroke="none" style="dominant-baseline: alphabetic;" x="134 137 145 151 155 162 165 169 175" xml:lang="en" xml:space="preserve" y="199">Installer</text>
</g>
<g>
<text class="font2" fill="rgb(31,73,125)" stroke="none" style="dominant-baseline: alphabetic;" x="137 149 152 158 165 169" xml:lang="en" xml:space="preserve" y="214">Wizard</text>
</g>
<g>
<polygon class="pen1 brush3" points="208,179 276,179 276,225 249,225 249,238 255,238 242,253 228,238 235,238 235,225 208,225"/>
<path class="pen2 brush2" d="M 207,179  L 208,179 208,179 276,179 276,179 276,179 276,225 276,225 276,225 249,225 250,225 250,238 249,237 255,237 256,237 256,237 256,238 256,238 242,254 242,254 241,254 228,238 227,238 228,237 228,237 228,237 235,237 234,238 234,225 235,225 208,225 208,225 207,225 207,179 z M 209,225  L 208,224 235,224 235,224 236,225 236,238 235,238 235,238 228,238 229,237 242,253 241,253 255,237 255,238 249,238 248,238 248,238 248,225 248,224 249,224 276,224 275,225 275,179 276,180 208,180 209,179 209,225 z" fill-rule="nonzero"/>
</g>
<g>
<text class="font2" fill="rgb(31,73,125)" stroke="none" style="dominant-baseline: alphabetic;" x="218 221 232 239 246 251 255 262" xml:lang="en" xml:space="preserve" y="199">Importer</text>
</g>
<g>
<text class="font2" fill="rgb(31,73,125)" stroke="none" style="dominant-baseline: alphabetic;" x="222 233 237 243 249 254" xml:lang="en" xml:space="preserve" y="214">Wizard</text>
</g>
<g>
<polygon class="pen1 brush3" points="296,179 363,179 363,225 336,225 336,238 343,238 329,253 316,238 322,238 322,225 296,225"/>
<path class="pen2 brush2" d="M 295,179  L 295,179 296,179 363,179 364,179 364,179 364,225 364,225 363,225 336,225 337,225 337,238 336,237 343,237 343,237 344,237 344,238 344,238 330,254 329,254 329,254 315,238 315,238 315,237 315,237 316,237 322,237 322,238 322,225 322,225 296,225 295,225 295,225 295,179 z M 296,225  L 296,224 322,224 323,224 323,225 323,238 323,238 322,238 316,238 316,237 330,253 329,253 342,237 343,238 336,238 336,238 336,238 336,225 336,224 336,224 363,224 362,225 362,179 363,180 296,180 296,179 296,225 z" fill-rule="nonzero"/>
</g>
<g>
<text class="font2" fill="rgb(31,73,125)" stroke="none" style="dominant-baseline: alphabetic;" x="307 315 323 330 337 341 347" xml:lang="en" xml:space="preserve" y="199">Updater</text>
</g>
<g>
<text class="font2" fill="rgb(31,73,125)" stroke="none" style="dominant-baseline: alphabetic;" x="310 321 324 330 337 342" xml:lang="en" xml:space="preserve" y="214">Wizard</text>
</g>
<g/>
</svg>
