<?xml version="1.0" encoding="utf-8"?>
<!-- Generator: Adobe Illustrator 18.1.1, SVG Export Plug-In . SVG Version: 6.00 Build 0)  -->
<svg version="1.1" id="Layer_1" xmlns="http://www.w3.org/2000/svg" xmlns:xlink="http://www.w3.org/1999/xlink" x="0px" y="0px"
	 viewBox="0 0 141.6 133.6" enable-background="new 0 0 141.6 133.6" xml:space="preserve">
<g>
	<path fill="#4B406E" d="M126.1,38.2c-6.3-10.5-16-18.8-27.6-23.4c-4.6-1.8-9.5-3-14.7-3.6c-0.4,0-0.7-0.1-1.1-0.1
		c-1.5-0.1-3-0.2-4.6-0.2c-7.7,0-15,1.6-21.7,4.4c-0.4,0.2-0.8,0.4-1.2,0.5c-0.4,0.2-0.9,0.4-1.3,0.6c-18.7,9-31.6,28.1-31.6,50.3
		c0,28.5,21.4,52,49,55.4c2.2,0.3,4.5,0.4,6.8,0.4c2.1,0,4.1-0.1,6.1-0.3c15.7-1.7,29.5-9.9,38.5-21.9c7-9.3,11.2-20.9,11.2-33.5
		C134,56.4,131.1,46.6,126.1,38.2z M56.8,35.4c0.4-0.2,0.8-0.4,1.2-0.6c0.5-0.2,1.1-0.5,1.6-0.7c0.2-0.1,0.3-0.2,0.3-0.3
		c0.2-0.4,0.2-0.8,0-1.3c-0.4-0.7-0.7-1.5-1-2.2c-0.2-0.4-0.1-0.8,0.2-1.1c0.5-0.5,1-1,1.5-1.6c0.3-0.3,0.6-0.4,1-0.3
		c0.9,0.3,1.8,0.6,2.7,1c0.2,0.1,0.3,0,0.5,0c0.5-0.1,0.7-0.5,0.9-0.9c0.2-0.7,0.6-1.5,0.9-2.2c0.2-0.4,0.5-0.6,1-0.6
		c0.7,0,1.5,0,2.2,0c0.4,0,0.7,0.2,0.9,0.5c0.3,0.6,0.6,1.2,0.8,1.7c0.1,0.2,0.2,0.3,0.2,0.5c0.1,0.5,0.4,0.7,0.8,0.8
		c0.2,0.1,0.4,0.1,0.6,0c0.9-0.4,1.7-0.8,2.6-1.1c0.4-0.1,0.7-0.1,0.9,0.2c0.3,0.3,0.6,0.5,0.8,0.8c0.3,0.3,0.5,0.5,0.8,0.8
		c0.3,0.3,0.4,0.6,0.3,1c-0.3,0.9-0.6,1.7-0.9,2.6c-0.1,0.3-0.1,0.5,0,0.8c0.1,0.3,0.3,0.5,0.7,0.6c0.8,0.3,1.6,0.6,2.4,0.9
		c0.4,0.2,0.6,0.5,0.6,1c0,0.8,0,1.6,0,2.4c0,0.3-0.1,0.5-0.3,0.6c-0.4,0.2-0.8,0.5-1.2,0.6c-0.5,0.2-1.1,0.5-1.6,0.7
		c-0.2,0.1-0.3,0.2-0.3,0.4c-0.2,0.4-0.2,0.8,0,1.3c0.4,0.7,0.7,1.5,1,2.2c0.2,0.4,0.1,0.8-0.2,1.1c-0.6,0.5-1.1,1.1-1.6,1.6
		c-0.2,0.2-0.4,0.2-0.6,0.3c-0.3-0.1-0.6-0.1-0.8-0.2c-0.8-0.3-1.5-0.6-2.3-0.9c-0.2-0.1-0.3,0-0.5,0c-0.5,0.1-0.7,0.5-0.9,1
		c-0.2,0.7-0.6,1.5-0.9,2.2c-0.2,0.4-0.4,0.6-0.9,0.6c-0.7,0-1.4,0-2.2,0c0,0-0.1,0-0.1,0c-0.4,0-0.7-0.1-0.9-0.5
		c-0.1-0.2-0.2-0.3-0.2-0.5l-0.3-0.2l-0.2-0.7c-0.2-0.3-0.3-0.7-0.4-1c-0.2-0.6-0.7-0.6-1.1-0.8c-0.1,0-0.2,0-0.3,0.1
		c-0.9,0.4-1.8,0.8-2.6,1.1c-0.4,0.2-0.7,0.1-1-0.2c-0.5-0.5-1.1-1.1-1.6-1.6c-0.3-0.3-0.5-0.6-0.3-1.1c0.3-0.8,0.6-1.7,0.9-2.5
		c0.2-0.5,0-0.9-0.2-1.3c0-0.1-0.1-0.1-0.2-0.1c-0.9-0.3-1.7-0.7-2.6-1c-0.5-0.2-0.7-0.5-0.7-1c0-0.8,0-1.5,0-2.3
		C56.5,35.8,56.6,35.5,56.8,35.4z M62.6,107.6c-0.6-0.4-1.3-0.8-1.9-1.1c-0.4-0.2-0.6-0.5-0.5-1c0.1-0.9,0.2-1.8,0.4-2.6
		c0.1-0.6-0.2-0.8-0.5-1.2c0-0.1-0.2-0.1-0.3-0.1c-0.9-0.1-1.8-0.2-2.7-0.4c-0.5-0.1-0.8-0.3-0.9-0.9c-0.1-0.7-0.3-1.5-0.5-2.2
		c-0.1-0.3,0-0.6,0.2-0.8c0.3-0.3,0.7-0.6,1-0.9c0.5-0.4,0.9-0.7,1.4-1c0.2-0.1,0.2-0.2,0.3-0.4c0.1-0.5,0-0.8-0.3-1.2
		c-0.5-0.6-1-1.3-1.4-1.9c-0.3-0.4-0.3-0.7,0-1.1c0.4-0.6,0.8-1.2,1.1-1.9c0.2-0.4,0.5-0.6,1-0.5c0.9,0.1,1.9,0.2,2.8,0.3
		c0.2,0,0.3,0,0.5-0.1c0.4-0.2,0.6-0.6,0.6-1.1c0.1-0.8,0.2-1.6,0.3-2.3c0.1-0.5,0.3-0.7,0.8-0.8c0.7-0.1,1.4-0.3,2.1-0.5
		c0.4-0.1,0.7,0,1,0.3c0.4,0.5,0.8,1,1.2,1.5c0.1,0.1,0.2,0.3,0.3,0.4c0.2,0.4,0.5,0.6,1,0.6c0.2,0,0.4,0,0.6-0.2
		c0.7-0.6,1.5-1.1,2.3-1.7c0.3-0.2,0.6-0.2,1,0c0.3,0.2,0.7,0.4,1,0.6c0.3,0.2,0.7,0.4,1,0.6c0.4,0.2,0.5,0.5,0.5,0.9
		c-0.1,0.9-0.2,1.8-0.4,2.7c-0.1,0.3,0,0.5,0.2,0.8c0.2,0.3,0.4,0.4,0.8,0.5c0.8,0.1,1.7,0.2,2.5,0.3c0.4,0.1,0.7,0.3,0.8,0.8
		c0.2,0.8,0.4,1.5,0.6,2.3c0.1,0.3,0,0.5-0.2,0.7c-0.3,0.3-0.7,0.6-1,0.9c-0.5,0.4-0.9,0.7-1.4,1c-0.2,0.1-0.2,0.2-0.3,0.4
		c-0.1,0.5,0,0.8,0.3,1.2c0.5,0.6,1,1.3,1.4,1.9c0.3,0.4,0.3,0.7,0,1.1c-0.4,0.6-0.8,1.3-1.2,2c-0.1,0.2-0.3,0.3-0.5,0.5
		c-0.3,0-0.6,0-0.8,0c-0.8-0.1-1.6-0.2-2.4-0.3c-0.2,0-0.3,0-0.5,0.1c-0.5,0.3-0.6,0.6-0.7,1.1c-0.1,0.8-0.2,1.6-0.3,2.3
		c-0.1,0.4-0.3,0.7-0.8,0.8c-0.7,0.2-1.5,0.4-2.2,0.6c-0.4,0.1-0.7,0-1-0.3c-0.5-0.7-1.1-1.3-1.6-2.1c-0.3-0.5-0.8-0.5-1.2-0.5
		c-0.1,0-0.2,0.1-0.2,0.1c-0.8,0.6-1.5,1.1-2.3,1.7c-0.2,0.2-0.5,0.2-0.7,0.1C62.8,107.7,62.7,107.6,62.6,107.6z M116.6,63.5
		c-0.6,0.6-1.3,1.2-2,1.7c-0.9,0.7-1.7,1.3-2.6,1.9c-0.3,0.2-0.4,0.5-0.5,0.8c-0.3,0.9,0,1.6,0.6,2.3c1,1.1,1.8,2.4,2.7,3.6
		c0.5,0.7,0.5,1.4,0,2.1c-0.8,1.2-1.5,2.5-2.3,3.7c-0.2,0.4-0.6,0.6-0.9,0.9c-0.6,0-1.1,0-1.5-0.1c-1.5-0.2-3-0.4-4.6-0.6
		c-0.3-0.1-0.6,0.1-0.9,0.2c-0.9,0.5-1.2,1.2-1.3,2.1c-0.1,1.5-0.4,2.9-0.6,4.4c-0.1,0.8-0.6,1.3-1.4,1.5c-1.4,0.3-2.8,0.7-4.1,1
		c-0.8,0.2-1.3,0-1.8-0.6c-1-1.3-2.1-2.5-3-3.9c-0.6-0.9-1.5-0.9-2.3-1c-0.1,0-0.3,0.2-0.5,0.3c-1.4,1.1-2.9,2.2-4.3,3.2
		c-0.6,0.5-1.2,0.4-1.9,0c-1.2-0.7-2.4-1.5-3.6-2.1c-0.7-0.4-1-0.9-1-1.6c0-0.1,0-0.2,0-0.3c0.2-1.6,0.3-3.3,0.7-4.9
		c0.2-1.1-0.4-1.6-0.9-2.2c-0.1-0.1-0.3-0.1-0.5-0.1c-1.7-0.2-3.4-0.5-5.1-0.7c-0.9-0.1-1.4-0.6-1.6-1.6c-0.3-1.4-0.6-2.8-1-4.2
		c-0.2-0.6-0.1-1.1,0.4-1.5c0.6-0.6,1.2-1.1,1.9-1.6c0.9-0.7,1.7-1.3,2.6-1.9c0.3-0.2,0.4-0.5,0.5-0.8c0.3-0.9,0-1.6-0.6-2.3
		c-1-1.1-1.8-2.4-2.7-3.6c-0.5-0.7-0.5-1.4,0-2.1c0.4-0.5,0.7-1.1,1-1.7c0.4-0.6,0.7-1.2,1.1-1.9c0.4-0.7,1-1.1,1.8-1
		c1.8,0.2,3.5,0.4,5.3,0.6c0.4,0.1,0.6-0.1,1-0.2c0.8-0.5,1.1-1.1,1.2-2.1c0.1-1.5,0.4-2.9,0.6-4.4c0.1-0.9,0.6-1.4,1.5-1.5
		c1.3-0.3,2.7-0.6,4-1c0.8-0.2,1.4,0,1.9,0.6c0.7,0.9,1.5,1.9,2.2,2.8c0.2,0.3,0.4,0.5,0.6,0.8c0.4,0.8,1,1.1,1.9,1.2
		c0.5,0,0.8,0,1.1-0.3c1.4-1.1,2.8-2.1,4.2-3.2c0.6-0.4,1.2-0.4,1.8,0c1.2,0.7,2.4,1.5,3.7,2.2c0.7,0.4,1,0.9,0.9,1.7
		c-0.2,1.7-0.4,3.4-0.7,5.1c-0.1,0.6,0,1,0.4,1.5c0.4,0.6,0.8,0.8,1.5,0.9c1.6,0.2,3.2,0.4,4.8,0.7c0.8,0.1,1.3,0.6,1.5,1.5
		c0.3,1.5,0.7,2.9,1,4.3C117.1,62.7,117,63.2,116.6,63.5z"/>
	<path fill="#FFFFFF" d="M77.8,96.9c0.5-0.3,0.9-0.7,1.4-1c0.4-0.3,0.7-0.6,1-0.9c0.2-0.2,0.2-0.4,0.2-0.7c-0.2-0.8-0.4-1.5-0.6-2.3
		c-0.1-0.5-0.4-0.7-0.8-0.8c-0.8-0.1-1.7-0.3-2.5-0.3c-0.4,0-0.6-0.2-0.8-0.5c-0.2-0.3-0.2-0.5-0.2-0.8c0.1-0.9,0.2-1.8,0.4-2.7
		c0.1-0.4-0.1-0.7-0.5-0.9c-0.3-0.2-0.7-0.4-1-0.6c-0.3-0.2-0.7-0.4-1-0.6c-0.3-0.2-0.7-0.2-1,0c-0.8,0.6-1.5,1.1-2.3,1.7
		c-0.2,0.1-0.4,0.2-0.6,0.2c-0.5,0-0.8-0.2-1-0.6c-0.1-0.2-0.2-0.3-0.3-0.4c-0.4-0.5-0.8-1-1.2-1.5c-0.3-0.3-0.6-0.4-1-0.3
		c-0.7,0.2-1.4,0.4-2.1,0.5c-0.5,0.1-0.7,0.4-0.8,0.8c-0.1,0.8-0.3,1.6-0.3,2.3c0,0.5-0.2,0.9-0.6,1.1c-0.2,0.1-0.3,0.2-0.5,0.1
		c-0.9-0.1-1.9-0.2-2.8-0.3c-0.4,0-0.7,0.1-1,0.5c-0.4,0.6-0.7,1.3-1.1,1.9c-0.3,0.4-0.3,0.8,0,1.1c0.5,0.6,0.9,1.3,1.4,1.9
		c0.3,0.4,0.4,0.7,0.3,1.2c-0.1,0.2-0.1,0.3-0.3,0.4c-0.5,0.3-0.9,0.7-1.4,1c-0.3,0.3-0.7,0.6-1,0.9c-0.2,0.2-0.3,0.5-0.2,0.8
		c0.2,0.7,0.4,1.5,0.5,2.2c0.1,0.5,0.4,0.8,0.9,0.9c0.9,0.1,1.8,0.3,2.7,0.4c0.1,0,0.2,0,0.3,0.1c0.3,0.4,0.6,0.6,0.5,1.2
		c-0.2,0.9-0.2,1.7-0.4,2.6c-0.1,0.5,0.1,0.8,0.5,1c0.7,0.4,1.3,0.7,1.9,1.1c0.1,0.1,0.2,0.1,0.3,0.1c0.2,0.1,0.5,0,0.7-0.1
		c0.8-0.6,1.5-1.1,2.3-1.7c0.1-0.1,0.2-0.2,0.2-0.1c0.5,0.1,0.9,0,1.2,0.5c0.5,0.7,1.1,1.4,1.6,2.1c0.2,0.3,0.6,0.4,1,0.3
		c0.7-0.2,1.5-0.4,2.2-0.6c0.4-0.1,0.7-0.3,0.8-0.8c0.1-0.8,0.3-1.6,0.3-2.3c0-0.5,0.2-0.9,0.7-1.1c0.2-0.1,0.3-0.1,0.5-0.1
		c0.8,0.1,1.6,0.2,2.4,0.3c0.2,0,0.5,0,0.8,0c0.1-0.1,0.3-0.3,0.5-0.5c0.4-0.6,0.8-1.3,1.2-2c0.3-0.4,0.3-0.8,0-1.1
		c-0.5-0.6-0.9-1.3-1.4-1.9c-0.3-0.4-0.4-0.7-0.3-1.2C77.6,97.2,77.7,97,77.8,96.9z M69.1,100.5c-2.4,0.6-4.8-0.9-5.4-3.2
		c-0.6-2.4,0.9-4.8,3.3-5.5c2.4-0.6,4.8,0.9,5.4,3.2C72.9,97.5,71.5,99.9,69.1,100.5z"/>
	<g>
		<path fill="none" d="M126.1,38.2L126.1,38.2c-6.3-10.5-16-18.8-27.6-23.4C110.1,19.4,119.8,27.7,126.1,38.2z"/>
		<path fill="none" d="M78.2,122.6L78.2,122.6c-2.3,0-4.6-0.2-6.8-0.4C73.6,122.5,75.9,122.6,78.2,122.6z"/>
		<path fill="none" d="M78.2,11c-7.7,0-15,1.6-21.7,4.4C63.1,12.6,70.5,11,78.2,11L78.2,11z"/>
		<path fill="none" d="M54,16.5c0.4-0.2,0.9-0.4,1.3-0.6C54.9,16.1,54.4,16.3,54,16.5z"/>
		<path fill="none" d="M82.8,11.2c0.4,0,0.7,0,1.1,0.1C83.5,11.3,83.2,11.2,82.8,11.2z"/>
		<path fill="#4B406E" d="M55.3,15.9c0.4-0.2,0.8-0.4,1.2-0.5C56.1,15.6,55.7,15.7,55.3,15.9z"/>
		<path fill="#4B406E" d="M122.8,100.3c-9,12-22.8,20.2-38.5,21.9c-2,0.2-4.1,0.3-6.1,0.3h0C96.4,122.6,112.6,113.9,122.8,100.3z"/>
		<path fill="#4B406E" d="M78.2,11L78.2,11c1.5,0,3.1,0.1,4.6,0.2C81.3,11.1,79.7,11,78.2,11z"/>
		<path fill="#4B406E" d="M83.9,11.3c5.1,0.5,10,1.7,14.7,3.6C93.9,13,89,11.8,83.9,11.3z"/>
		<path fill="#4B406E" d="M22.4,66.8c0-22.2,12.9-41.3,31.6-50.3C35.3,25.5,22.4,44.7,22.4,66.8c0,28.5,21.4,52,49,55.4
			C43.8,118.8,22.4,95.3,22.4,66.8z"/>
		<path fill="#2C2255" d="M134,66.8c0,12.6-4.2,24.2-11.2,33.5C129.8,91,134,79.4,134,66.8c0-10.5-2.9-20.2-7.9-28.6l0,0
			C131.1,46.6,134,56.4,134,66.8z"/>
		<path fill="#2C2255" d="M66.7,48.4l0.3,0.2c-0.1-0.3-0.3-0.6-0.4-0.9L66.7,48.4z"/>
		<path fill="#2C2255" d="M73.5,37c0-2.5-2.1-4.4-4.6-4.4c-2.5,0-4.4,2.1-4.4,4.6c0,2.5,2.1,4.4,4.6,4.4
			C71.5,41.5,73.5,39.4,73.5,37z"/>
		<path fill="#2C2255" d="M126.1,38.2L77.6,28c0.3,0.3,0.5,0.5,0.8,0.8c0.3,0.3,0.4,0.6,0.3,1c-0.3,0.9-0.6,1.7-0.9,2.6
			c-0.1,0.3-0.1,0.5,0,0.8c0.1,0.3,0.3,0.5,0.7,0.6c0.8,0.3,1.6,0.6,2.4,0.9c0.4,0.2,0.6,0.5,0.6,1c0,0.8,0,1.6,0,2.4
			c0,0.3-0.1,0.5-0.3,0.6c-0.4,0.2-0.8,0.5-1.2,0.6c-0.5,0.2-1.1,0.5-1.6,0.7c-0.2,0.1-0.3,0.2-0.3,0.4c-0.2,0.4-0.2,0.8,0,1.3
			c0.4,0.7,0.7,1.5,1,2.2c0.2,0.4,0.1,0.8-0.2,1.1c-0.6,0.5-1.1,1.1-1.6,1.6c-0.2,0.2-0.4,0.2-0.6,0.3c-0.3-0.1-0.6-0.1-0.8-0.2
			c-0.8-0.3-1.5-0.6-2.3-0.9c-0.2-0.1-0.3,0-0.5,0c-0.5,0.1-0.7,0.5-0.9,1c-0.2,0.7-0.6,1.5-0.9,2.2c-0.2,0.4-0.4,0.6-0.9,0.6
			c-0.7,0-1.4,0-2.2,0l5.4,4.4c0.4-0.6,0.7-1.2,1.1-1.9c0.4-0.7,1-1.1,1.8-1c1.8,0.2,3.5,0.4,5.3,0.6c0.4,0.1,0.6-0.1,1-0.2
			c0.8-0.5,1.1-1.1,1.2-2.1c0.1-1.5,0.4-2.9,0.6-4.4c0.1-0.9,0.6-1.4,1.5-1.5c1.3-0.3,2.7-0.6,4-1c0.8-0.2,1.4,0,1.9,0.6
			c0.7,0.9,1.5,1.9,2.2,2.8c0.2,0.3,0.4,0.5,0.6,0.8c0.4,0.8,1,1.1,1.9,1.2c0.5,0,0.8,0,1.1-0.3c1.4-1.1,2.8-2.1,4.2-3.2
			c0.6-0.4,1.2-0.4,1.8,0c1.2,0.7,2.4,1.5,3.7,2.2c0.7,0.4,1,0.9,0.9,1.7c-0.2,1.7-0.4,3.4-0.7,5.1c-0.1,0.6,0,1,0.4,1.5
			c0.4,0.6,0.8,0.8,1.5,0.9c1.6,0.2,3.2,0.4,4.8,0.7c0.8,0.1,1.3,0.6,1.5,1.5c0.3,1.5,0.7,2.9,1,4.3c0.1,0.5,0.1,1-0.3,1.3
			c-0.6,0.6-1.3,1.2-2,1.7c-0.9,0.7-1.7,1.3-2.6,1.9c-0.3,0.2-0.4,0.5-0.5,0.8c-0.3,0.9,0,1.6,0.6,2.3c1,1.1,1.8,2.4,2.7,3.6
			c0.5,0.7,0.5,1.4,0,2.1c-0.8,1.2-1.5,2.5-2.3,3.7c-0.2,0.4-0.6,0.6-0.9,0.9c-0.6,0-1.1,0-1.5-0.1c-1.5-0.2-3-0.4-4.6-0.6
			c-0.3-0.1-0.6,0.1-0.9,0.2c-0.9,0.5-1.2,1.2-1.3,2.1c-0.1,1.5-0.4,2.9-0.6,4.4c-0.1,0.8-0.6,1.3-1.4,1.5c-1.4,0.3-2.8,0.7-4.1,1
			c-0.8,0.2-1.3,0-1.8-0.6c-1-1.3-2.1-2.5-3-3.9c-0.6-0.9-1.5-0.9-2.3-1c-0.1,0-0.3,0.2-0.5,0.3c-1.4,1.1-2.9,2.2-4.3,3.2
			c-0.6,0.5-1.2,0.4-1.9,0c-1.2-0.7-2.4-1.5-3.6-2.1c-0.7-0.4-1-0.9-1-1.6l-4.5,1.9c0.3,0.2,0.7,0.4,1,0.6c0.4,0.2,0.5,0.5,0.5,0.9
			c-0.1,0.9-0.2,1.8-0.4,2.7c-0.1,0.3,0,0.5,0.2,0.8c0.2,0.3,0.4,0.4,0.8,0.5c0.8,0.1,1.7,0.2,2.5,0.3c0.4,0.1,0.7,0.3,0.8,0.8
			c0.2,0.8,0.4,1.5,0.6,2.3c0.1,0.3,0,0.5-0.2,0.7c-0.3,0.3-0.7,0.6-1,0.9c-0.5,0.4-0.9,0.7-1.4,1c-0.2,0.1-0.2,0.2-0.3,0.4
			c-0.1,0.5,0,0.8,0.3,1.2c0.5,0.6,1,1.3,1.4,1.9c0.3,0.4,0.3,0.7,0,1.1c-0.4,0.6-0.8,1.3-1.2,2c-0.1,0.2-0.3,0.3-0.5,0.5
			c-0.3,0-0.6,0-0.8,0c-0.8-0.1-1.6-0.2-2.4-0.3c-0.2,0-0.3,0-0.5,0.1c-0.5,0.3-0.6,0.6-0.7,1.1c-0.1,0.8-0.2,1.6-0.3,2.3
			c-0.1,0.4-0.3,0.7-0.8,0.8c-0.7,0.2-1.5,0.4-2.2,0.6c-0.4,0.1-0.7,0-1-0.3c-0.5-0.7-1.1-1.3-1.6-2.1c-0.3-0.5-0.8-0.5-1.2-0.5
			c-0.1,0-0.2,0.1-0.2,0.1c-0.8,0.6-1.5,1.1-2.3,1.7c-0.2,0.2-0.5,0.2-0.7,0.1l21.4,14.6c15.7-1.7,29.5-9.9,38.5-21.9
			c7-9.3,11.2-20.9,11.2-33.5C134,56.4,131.1,46.6,126.1,38.2z"/>
		<path fill="#2C2255" d="M95.7,73.9c4.5-1.1,7.2-5.7,6.2-10.2c-1.1-4.5-5.6-7.2-10.1-6.1c-4.5,1.1-7.2,5.7-6.2,10.2
			C86.7,72.3,91.2,75.1,95.7,73.9z"/>
		<path fill="#2C2255" d="M69.1,100.5c2.4-0.6,3.9-3.1,3.3-5.5c-0.6-2.4-3-3.9-5.4-3.2c-2.4,0.6-3.9,3.1-3.3,5.5
			C64.3,99.7,66.7,101.1,69.1,100.5z"/>
		<path fill="#F7941E" d="M19.1,66.8c0-29.4,21.9-53.8,50.3-58.1c-0.7,0-1.4-0.1-2.1-0.1c-31.9,0-57.8,26-57.8,58.2
			c0,32.1,25.9,58.2,57.8,58.2c0.7,0,1.4,0,2.1-0.1C40.9,120.6,19.1,96.2,19.1,66.8z"/>
		<path fill="#FFFFFF" d="M67.2,49.1c0.2,0.4,0.5,0.5,0.9,0.5c0,0,0.1,0,0.1,0l-1.2-1C67.1,48.8,67.1,48.9,67.2,49.1z"/>
	</g>
	<path fill="#FFFFFF" d="M81.5,35.7c0-0.5-0.2-0.8-0.6-1c-0.8-0.3-1.6-0.6-2.4-0.9c-0.3-0.1-0.5-0.3-0.7-0.6c-0.1-0.3-0.1-0.5,0-0.8
		c0.3-0.8,0.6-1.7,0.9-2.6c0.1-0.4,0-0.7-0.3-1c-0.3-0.2-0.5-0.5-0.8-0.8c-0.3-0.3-0.6-0.5-0.8-0.8c-0.3-0.3-0.6-0.4-0.9-0.2
		c-0.9,0.4-1.7,0.7-2.6,1.1c-0.2,0.1-0.4,0.1-0.6,0c-0.5-0.1-0.7-0.4-0.8-0.8c0-0.2-0.1-0.3-0.2-0.5c-0.3-0.6-0.5-1.2-0.8-1.7
		c-0.2-0.4-0.5-0.6-0.9-0.5c-0.7,0-1.5,0.1-2.2,0c-0.5,0-0.8,0.2-1,0.6c-0.3,0.7-0.6,1.5-0.9,2.2c-0.2,0.5-0.4,0.8-0.9,0.9
		c-0.2,0.1-0.3,0.1-0.5,0c-0.9-0.3-1.8-0.7-2.7-1c-0.4-0.1-0.7,0-1,0.3c-0.5,0.5-1,1.1-1.5,1.6c-0.4,0.3-0.4,0.7-0.2,1.1
		c0.3,0.7,0.6,1.5,1,2.2c0.2,0.4,0.3,0.8,0,1.3c-0.1,0.2-0.2,0.3-0.3,0.3c-0.5,0.2-1.1,0.4-1.6,0.7c-0.4,0.2-0.8,0.4-1.2,0.6
		c-0.3,0.1-0.4,0.4-0.4,0.7c0,0.8,0.1,1.5,0,2.3c0,0.5,0.2,0.9,0.7,1c0.9,0.3,1.7,0.7,2.6,1c0.1,0,0.2,0.1,0.2,0.1
		c0.2,0.4,0.5,0.7,0.2,1.3c-0.4,0.8-0.6,1.6-0.9,2.5c-0.2,0.4-0.1,0.8,0.3,1.1c0.6,0.5,1.1,1,1.6,1.6c0.3,0.3,0.6,0.4,1,0.2
		c0.9-0.4,1.8-0.8,2.6-1.1c0.1,0,0.2-0.1,0.3-0.1c0.4,0.2,0.9,0.2,1.1,0.8c0.1,0.3,0.3,0.7,0.4,1c0.1,0.3,0.3,0.6,0.4,0.9l1.2,1
		c0.7,0,1.4-0.1,2.2,0c0.5,0,0.7-0.2,0.9-0.6c0.3-0.7,0.6-1.5,0.9-2.2c0.2-0.5,0.4-0.8,0.9-1c0.2,0,0.3-0.1,0.5,0
		c0.8,0.3,1.5,0.6,2.3,0.9c0.2,0.1,0.5,0.1,0.8,0.2c0.2-0.1,0.4-0.2,0.6-0.3c0.5-0.5,1.1-1.1,1.6-1.6c0.4-0.3,0.4-0.7,0.2-1.1
		c-0.3-0.7-0.6-1.5-1-2.2c-0.2-0.4-0.3-0.8,0-1.3c0.1-0.2,0.2-0.3,0.3-0.4c0.5-0.2,1.1-0.4,1.6-0.7c0.4-0.2,0.8-0.4,1.2-0.6
		c0.2-0.1,0.3-0.4,0.3-0.6C81.5,37.2,81.4,36.5,81.5,35.7z M69.1,41.5c-2.5,0-4.5-1.9-4.6-4.4c0-2.5,1.9-4.5,4.4-4.6
		c2.5,0,4.5,1.9,4.6,4.4C73.5,39.4,71.5,41.5,69.1,41.5z"/>
	<path fill="#FFFFFF" d="M112,67.2c0.9-0.6,1.8-1.3,2.6-1.9c0.7-0.5,1.3-1.1,2-1.7c0.4-0.4,0.5-0.8,0.3-1.3c-0.4-1.4-0.8-2.9-1-4.3
		c-0.2-0.9-0.7-1.4-1.5-1.5c-1.6-0.2-3.2-0.5-4.8-0.7c-0.7-0.1-1.1-0.3-1.5-0.9c-0.3-0.5-0.5-0.9-0.4-1.5c0.3-1.7,0.5-3.4,0.7-5.1
		c0.1-0.8-0.2-1.3-0.9-1.7c-1.2-0.7-2.5-1.4-3.7-2.2c-0.6-0.4-1.2-0.4-1.8,0c-1.4,1-2.8,2.1-4.2,3.2c-0.4,0.3-0.7,0.3-1.1,0.3
		c-0.9,0-1.5-0.4-1.9-1.2c-0.2-0.3-0.4-0.6-0.6-0.8c-0.7-0.9-1.5-1.9-2.2-2.8c-0.5-0.6-1.1-0.8-1.9-0.6c-1.3,0.4-2.6,0.7-4,1
		c-0.9,0.2-1.4,0.7-1.5,1.5c-0.2,1.5-0.5,2.9-0.6,4.4c-0.1,0.9-0.4,1.6-1.2,2.1c-0.3,0.2-0.6,0.3-1,0.2c-1.8-0.2-3.5-0.4-5.3-0.6
		c-0.8-0.1-1.4,0.3-1.8,1c-0.4,0.6-0.7,1.2-1.1,1.9c-0.3,0.6-0.7,1.1-1,1.7c-0.5,0.8-0.5,1.4,0,2.1c0.9,1.2,1.7,2.4,2.7,3.6
		c0.6,0.7,0.8,1.4,0.6,2.3c-0.1,0.3-0.2,0.6-0.5,0.8c-0.9,0.6-1.8,1.3-2.6,1.9c-0.7,0.5-1.3,1.1-1.9,1.6c-0.4,0.4-0.5,0.9-0.4,1.5
		c0.4,1.4,0.7,2.8,1,4.2c0.2,1,0.7,1.5,1.6,1.6c1.7,0.2,3.4,0.5,5.1,0.7c0.2,0,0.4,0,0.5,0.1c0.5,0.7,1.1,1.2,0.9,2.2
		c-0.3,1.6-0.5,3.3-0.7,4.9c0,0.1,0,0.2,0,0.3c0,0.7,0.3,1.2,1,1.6c1.2,0.7,2.4,1.4,3.6,2.1c0.7,0.4,1.3,0.4,1.9,0
		c1.4-1.1,2.9-2.1,4.3-3.2c0.1-0.1,0.3-0.3,0.5-0.3c0.8,0.1,1.7,0,2.3,1c0.9,1.4,2,2.6,3,3.9c0.5,0.6,1.1,0.8,1.8,0.6
		c1.4-0.4,2.7-0.8,4.1-1c0.8-0.2,1.3-0.6,1.4-1.5c0.2-1.5,0.5-2.9,0.6-4.4c0.1-1,0.4-1.7,1.3-2.1c0.3-0.2,0.5-0.3,0.9-0.2
		c1.5,0.2,3,0.4,4.6,0.6c0.5,0.1,0.9,0,1.5,0.1c0.3-0.2,0.6-0.5,0.9-0.9c0.8-1.2,1.5-2.5,2.3-3.7c0.5-0.8,0.5-1.4,0-2.1
		c-0.9-1.2-1.7-2.4-2.7-3.6c-0.6-0.7-0.8-1.4-0.6-2.3C111.7,67.6,111.8,67.4,112,67.2z M95.7,73.9c-4.5,1.1-9-1.6-10.1-6.1
		c-1.1-4.5,1.7-9.1,6.2-10.2c4.5-1.1,9,1.6,10.1,6.1C102.9,68.2,100.2,72.8,95.7,73.9z"/>
</g>
</svg>
