<?xml version="1.0" encoding="utf-8"?>
<!-- Generator: Adobe Illustrator 18.1.1, SVG Export Plug-In . SVG Version: 6.00 Build 0)  -->
<svg version="1.1" id="Layer_1" xmlns="http://www.w3.org/2000/svg" xmlns:xlink="http://www.w3.org/1999/xlink" x="0px" y="0px"
	 viewBox="0 0 334.1 223.6" enable-background="new 0 0 334.1 223.6" xml:space="preserve">
<g>
	<path fill="#4B406E" d="M217.4,50.2c-6.3-10.5-16-18.8-27.6-23.4c-4.6-1.8-9.5-3-14.7-3.6c-0.4,0-0.7-0.1-1.1-0.1
		c-1.5-0.1-3-0.2-4.6-0.2c-7.7,0-15,1.6-21.7,4.4c-0.4,0.2-0.8,0.4-1.2,0.5c-0.4,0.2-0.9,0.4-1.3,0.6c-18.7,9-31.6,28.1-31.6,50.3
		c0,28.5,21.4,52,49,55.4c2.2,0.3,4.5,0.4,6.8,0.4c2.1,0,4.1-0.1,6.1-0.3c15.7-1.7,29.5-9.9,38.5-21.9c7-9.3,11.2-20.9,11.2-33.5
		C225.3,68.4,222.4,58.6,217.4,50.2z M148.2,47.4c0.4-0.2,0.8-0.4,1.2-0.6c0.5-0.2,1.1-0.5,1.6-0.7c0.2-0.1,0.3-0.2,0.3-0.3
		c0.2-0.4,0.2-0.8,0-1.3c-0.4-0.7-0.7-1.5-1-2.2c-0.2-0.4-0.1-0.8,0.2-1.1c0.5-0.5,1-1,1.5-1.6c0.3-0.3,0.6-0.4,1-0.3
		c0.9,0.3,1.8,0.6,2.7,1c0.2,0.1,0.3,0,0.5,0c0.5-0.1,0.7-0.5,0.9-0.9c0.2-0.7,0.6-1.5,0.9-2.2c0.2-0.4,0.5-0.6,1-0.6
		c0.7,0,1.5,0,2.2,0c0.4,0,0.7,0.2,0.9,0.5c0.3,0.6,0.6,1.2,0.8,1.7c0.1,0.2,0.2,0.3,0.2,0.5c0.1,0.5,0.4,0.7,0.8,0.8
		c0.2,0.1,0.4,0.1,0.6,0c0.9-0.4,1.7-0.8,2.6-1.1c0.4-0.1,0.7-0.1,0.9,0.2c0.3,0.3,0.6,0.5,0.8,0.8c0.3,0.3,0.5,0.5,0.8,0.8
		c0.3,0.3,0.4,0.6,0.3,1c-0.3,0.9-0.6,1.7-0.9,2.6c-0.1,0.3-0.1,0.5,0,0.8c0.1,0.3,0.3,0.5,0.7,0.6c0.8,0.3,1.6,0.6,2.4,0.9
		c0.4,0.2,0.6,0.5,0.6,1c0,0.8,0,1.6,0,2.4c0,0.3-0.1,0.5-0.3,0.6c-0.4,0.2-0.8,0.5-1.2,0.6c-0.5,0.2-1.1,0.5-1.6,0.7
		c-0.2,0.1-0.3,0.2-0.3,0.4c-0.2,0.4-0.2,0.8,0,1.3c0.4,0.7,0.7,1.5,1,2.2c0.2,0.4,0.1,0.8-0.2,1.1c-0.6,0.5-1.1,1.1-1.6,1.6
		c-0.2,0.2-0.4,0.2-0.6,0.3c-0.3-0.1-0.6-0.1-0.8-0.2c-0.8-0.3-1.5-0.6-2.3-0.9c-0.2-0.1-0.3,0-0.5,0c-0.5,0.1-0.7,0.5-0.9,1
		c-0.2,0.7-0.6,1.5-0.9,2.2c-0.2,0.4-0.4,0.6-0.9,0.6c-0.7,0-1.4,0-2.2,0c0,0-0.1,0-0.1,0c-0.4,0-0.7-0.1-0.9-0.5
		c-0.1-0.2-0.2-0.3-0.2-0.5l-0.3-0.2l-0.2-0.7c-0.2-0.3-0.3-0.7-0.4-1c-0.2-0.6-0.7-0.6-1.1-0.8c-0.1,0-0.2,0-0.3,0.1
		c-0.9,0.4-1.8,0.8-2.6,1.1c-0.4,0.2-0.7,0.1-1-0.2c-0.5-0.5-1.1-1.1-1.6-1.6c-0.3-0.3-0.5-0.6-0.3-1.1c0.3-0.8,0.6-1.7,0.9-2.5
		c0.2-0.5,0-0.9-0.2-1.3c0-0.1-0.1-0.1-0.2-0.1c-0.9-0.3-1.7-0.7-2.6-1c-0.5-0.2-0.7-0.5-0.7-1c0-0.8,0-1.5,0-2.3
		C147.8,47.8,147.9,47.6,148.2,47.4z M153.9,119.6c-0.6-0.4-1.3-0.8-1.9-1.1c-0.4-0.2-0.6-0.5-0.5-1c0.1-0.9,0.2-1.8,0.4-2.6
		c0.1-0.6-0.2-0.8-0.5-1.2c0-0.1-0.2-0.1-0.3-0.1c-0.9-0.1-1.8-0.2-2.7-0.4c-0.5-0.1-0.8-0.3-0.9-0.9c-0.1-0.7-0.3-1.5-0.5-2.2
		c-0.1-0.3,0-0.6,0.2-0.8c0.3-0.3,0.7-0.6,1-0.9c0.5-0.4,0.9-0.7,1.4-1c0.2-0.1,0.2-0.2,0.3-0.4c0.1-0.5,0-0.8-0.3-1.2
		c-0.5-0.6-1-1.3-1.4-1.9c-0.3-0.4-0.3-0.7,0-1.1c0.4-0.6,0.8-1.2,1.1-1.9c0.2-0.4,0.5-0.6,1-0.5c0.9,0.1,1.9,0.2,2.8,0.3
		c0.2,0,0.3,0,0.5-0.1c0.4-0.2,0.6-0.6,0.6-1.1c0.1-0.8,0.2-1.6,0.3-2.3c0.1-0.5,0.3-0.7,0.8-0.8c0.7-0.1,1.4-0.3,2.1-0.5
		c0.4-0.1,0.7,0,1,0.3c0.4,0.5,0.8,1,1.2,1.5c0.1,0.1,0.2,0.3,0.3,0.4c0.2,0.4,0.5,0.6,1,0.6c0.2,0,0.4,0,0.6-0.2
		c0.7-0.6,1.5-1.1,2.3-1.7c0.3-0.2,0.6-0.2,1,0c0.3,0.2,0.7,0.4,1,0.6c0.3,0.2,0.7,0.4,1,0.6c0.4,0.2,0.5,0.5,0.5,0.9
		c-0.1,0.9-0.2,1.8-0.4,2.7c-0.1,0.3,0,0.5,0.2,0.8c0.2,0.3,0.4,0.4,0.8,0.5c0.8,0.1,1.7,0.2,2.5,0.3c0.4,0.1,0.7,0.3,0.8,0.8
		c0.2,0.8,0.4,1.5,0.6,2.3c0.1,0.3,0,0.5-0.2,0.7c-0.3,0.3-0.7,0.6-1,0.9c-0.5,0.4-0.9,0.7-1.4,1c-0.2,0.1-0.2,0.2-0.3,0.4
		c-0.1,0.5,0,0.8,0.3,1.2c0.5,0.6,1,1.3,1.4,1.9c0.3,0.4,0.3,0.7,0,1.1c-0.4,0.6-0.8,1.3-1.2,2c-0.1,0.2-0.3,0.3-0.5,0.5
		c-0.3,0-0.6,0-0.8,0c-0.8-0.1-1.6-0.2-2.4-0.3c-0.2,0-0.3,0-0.5,0.1c-0.5,0.3-0.6,0.6-0.7,1.1c-0.1,0.8-0.2,1.6-0.3,2.3
		c-0.1,0.4-0.3,0.7-0.8,0.8c-0.7,0.2-1.5,0.4-2.2,0.6c-0.4,0.1-0.7,0-1-0.3c-0.5-0.7-1.1-1.3-1.6-2.1c-0.3-0.5-0.8-0.5-1.2-0.5
		c-0.1,0-0.2,0.1-0.2,0.1c-0.8,0.6-1.5,1.1-2.3,1.7c-0.2,0.2-0.5,0.2-0.7,0.1C154.1,119.7,154,119.7,153.9,119.6z M208,75.6
		c-0.6,0.6-1.3,1.2-2,1.7c-0.9,0.7-1.7,1.3-2.6,1.9c-0.3,0.2-0.4,0.5-0.5,0.8c-0.3,0.9,0,1.6,0.6,2.3c1,1.1,1.8,2.4,2.7,3.6
		c0.5,0.7,0.5,1.4,0,2.1c-0.8,1.2-1.5,2.5-2.3,3.7c-0.2,0.4-0.6,0.6-0.9,0.9c-0.6,0-1.1,0-1.5-0.1c-1.5-0.2-3-0.4-4.6-0.6
		c-0.3-0.1-0.6,0.1-0.9,0.2c-0.9,0.5-1.2,1.2-1.3,2.1c-0.1,1.5-0.4,2.9-0.6,4.4c-0.1,0.8-0.6,1.3-1.4,1.5c-1.4,0.3-2.8,0.7-4.1,1
		c-0.8,0.2-1.3,0-1.8-0.6c-1-1.3-2.1-2.5-3-3.9c-0.6-0.9-1.5-0.9-2.3-1c-0.1,0-0.3,0.2-0.5,0.3c-1.4,1.1-2.9,2.2-4.3,3.2
		c-0.6,0.5-1.2,0.4-1.9,0c-1.2-0.7-2.4-1.5-3.6-2.1c-0.7-0.4-1-0.9-1-1.6c0-0.1,0-0.2,0-0.3c0.2-1.6,0.3-3.3,0.7-4.9
		c0.2-1.1-0.4-1.6-0.9-2.2c-0.1-0.1-0.3-0.1-0.5-0.1c-1.7-0.2-3.4-0.5-5.1-0.7c-0.9-0.1-1.4-0.6-1.6-1.6c-0.3-1.4-0.6-2.8-1-4.2
		c-0.2-0.6-0.1-1.1,0.4-1.5c0.6-0.6,1.2-1.1,1.9-1.6c0.9-0.7,1.7-1.3,2.6-1.9c0.3-0.2,0.4-0.5,0.5-0.8c0.3-0.9,0-1.6-0.6-2.3
		c-1-1.1-1.8-2.4-2.7-3.6c-0.5-0.7-0.5-1.4,0-2.1c0.4-0.5,0.7-1.1,1-1.7c0.4-0.6,0.7-1.2,1.1-1.9c0.4-0.7,1-1.1,1.8-1
		c1.8,0.2,3.5,0.4,5.3,0.6c0.4,0.1,0.6-0.1,1-0.2c0.8-0.5,1.1-1.1,1.2-2.1c0.1-1.5,0.4-2.9,0.6-4.4c0.1-0.9,0.6-1.4,1.5-1.5
		c1.3-0.3,2.7-0.6,4-1c0.8-0.2,1.4,0,1.9,0.6c0.7,0.9,1.5,1.9,2.2,2.8c0.2,0.3,0.4,0.5,0.6,0.8c0.4,0.8,1,1.1,1.9,1.2
		c0.5,0,0.8,0,1.1-0.3c1.4-1.1,2.8-2.1,4.2-3.2c0.6-0.4,1.2-0.4,1.8,0c1.2,0.7,2.4,1.5,3.7,2.2c0.7,0.4,1,0.9,0.9,1.7
		c-0.2,1.7-0.4,3.4-0.7,5.1c-0.1,0.6,0,1,0.4,1.5c0.4,0.6,0.8,0.8,1.5,0.9c1.6,0.2,3.2,0.4,4.8,0.7c0.8,0.1,1.3,0.6,1.5,1.5
		c0.3,1.5,0.7,2.9,1,4.3C208.4,74.8,208.3,75.2,208,75.6z"/>
	<path fill="#FFFFFF" d="M169.1,109c0.5-0.3,0.9-0.7,1.4-1c0.4-0.3,0.7-0.6,1-0.9c0.2-0.2,0.2-0.4,0.2-0.7c-0.2-0.8-0.4-1.5-0.6-2.3
		c-0.1-0.5-0.4-0.7-0.8-0.8c-0.8-0.1-1.7-0.3-2.5-0.3c-0.4,0-0.6-0.2-0.8-0.5c-0.2-0.3-0.2-0.5-0.2-0.8c0.1-0.9,0.2-1.8,0.4-2.7
		c0.1-0.4-0.1-0.7-0.5-0.9c-0.3-0.2-0.7-0.4-1-0.6c-0.3-0.2-0.7-0.4-1-0.6c-0.3-0.2-0.7-0.2-1,0c-0.8,0.6-1.5,1.1-2.3,1.7
		c-0.2,0.1-0.4,0.2-0.6,0.2c-0.5,0-0.8-0.2-1-0.6c-0.1-0.2-0.2-0.3-0.3-0.4c-0.4-0.5-0.8-1-1.2-1.5c-0.3-0.3-0.6-0.4-1-0.3
		c-0.7,0.2-1.4,0.4-2.1,0.5c-0.5,0.1-0.7,0.4-0.8,0.8c-0.1,0.8-0.3,1.6-0.3,2.3c0,0.5-0.2,0.9-0.6,1.1c-0.2,0.1-0.3,0.2-0.5,0.1
		c-0.9-0.1-1.9-0.2-2.8-0.3c-0.4,0-0.7,0.1-1,0.5c-0.4,0.6-0.7,1.3-1.1,1.9c-0.3,0.4-0.3,0.8,0,1.1c0.5,0.6,0.9,1.3,1.4,1.9
		c0.3,0.4,0.4,0.7,0.3,1.2c-0.1,0.2-0.1,0.3-0.3,0.4c-0.5,0.3-0.9,0.7-1.4,1c-0.3,0.3-0.7,0.6-1,0.9c-0.2,0.2-0.3,0.5-0.2,0.8
		c0.2,0.7,0.4,1.5,0.5,2.2c0.1,0.5,0.4,0.8,0.9,0.9c0.9,0.1,1.8,0.3,2.7,0.4c0.1,0,0.2,0,0.3,0.1c0.3,0.4,0.6,0.6,0.5,1.2
		c-0.2,0.9-0.2,1.7-0.4,2.6c-0.1,0.5,0.1,0.8,0.5,1c0.7,0.4,1.3,0.7,1.9,1.1c0.1,0.1,0.2,0.1,0.3,0.1c0.2,0.1,0.5,0,0.7-0.1
		c0.8-0.6,1.5-1.1,2.3-1.7c0.1-0.1,0.2-0.2,0.2-0.1c0.5,0.1,0.9,0,1.2,0.5c0.5,0.7,1.1,1.4,1.6,2.1c0.2,0.3,0.6,0.4,1,0.3
		c0.7-0.2,1.5-0.4,2.2-0.6c0.4-0.1,0.7-0.3,0.8-0.8c0.1-0.8,0.3-1.6,0.3-2.3c0-0.5,0.2-0.9,0.7-1.1c0.2-0.1,0.3-0.1,0.5-0.1
		c0.8,0.1,1.6,0.2,2.4,0.3c0.2,0,0.5,0,0.8,0c0.1-0.1,0.3-0.3,0.5-0.5c0.4-0.6,0.8-1.3,1.2-2c0.3-0.4,0.3-0.8,0-1.1
		c-0.5-0.6-0.9-1.3-1.4-1.9c-0.3-0.4-0.4-0.7-0.3-1.2C168.9,109.2,169,109.1,169.1,109z M160.4,112.6c-2.4,0.6-4.8-0.9-5.4-3.2
		c-0.6-2.4,0.9-4.8,3.3-5.5c2.4-0.6,4.8,0.9,5.4,3.2C164.3,109.5,162.8,112,160.4,112.6z"/>
	<g>
		<path fill="none" d="M217.4,50.2L217.4,50.2c-6.3-10.5-16-18.8-27.6-23.4C201.5,31.4,211.1,39.7,217.4,50.2z"/>
		<path fill="none" d="M169.5,134.7L169.5,134.7c-2.3,0-4.6-0.2-6.8-0.4C164.9,134.5,167.2,134.7,169.5,134.7z"/>
		<path fill="none" d="M169.5,23c-7.7,0-15,1.6-21.7,4.4C154.5,24.6,161.8,23,169.5,23L169.5,23z"/>
		<path fill="none" d="M145.3,28.5c0.4-0.2,0.9-0.4,1.3-0.6C146.2,28.2,145.8,28.3,145.3,28.5z"/>
		<path fill="none" d="M174.1,23.2c0.4,0,0.7,0,1.1,0.1C174.9,23.3,174.5,23.3,174.1,23.2z"/>
		<path fill="#4B406E" d="M146.6,28c0.4-0.2,0.8-0.4,1.2-0.5C147.4,27.6,147,27.8,146.6,28z"/>
		<path fill="#4B406E" d="M214.1,112.4c-9,12-22.8,20.2-38.5,21.9c-2,0.2-4.1,0.3-6.1,0.3h0C187.8,134.7,203.9,125.9,214.1,112.4z"
			/>
		<path fill="#4B406E" d="M169.5,23L169.5,23c1.5,0,3.1,0.1,4.6,0.2C172.6,23.1,171.1,23,169.5,23z"/>
		<path fill="#4B406E" d="M175.2,23.3c5.1,0.5,10,1.7,14.7,3.6C185.3,25.1,180.4,23.9,175.2,23.3z"/>
		<path fill="#4B406E" d="M113.7,78.9c0-22.2,12.9-41.3,31.6-50.3C126.6,37.6,113.7,56.7,113.7,78.9c0,28.5,21.4,52,49,55.4
			C135.1,130.8,113.7,107.4,113.7,78.9z"/>
		<path fill="#2C2255" d="M225.3,78.9c0,12.6-4.2,24.2-11.2,33.5C221.2,103.1,225.3,91.4,225.3,78.9c0-10.5-2.9-20.2-7.9-28.6l0,0
			C222.4,58.6,225.3,68.4,225.3,78.9z"/>
		<path fill="#2C2255" d="M158.1,60.4l0.3,0.2c-0.1-0.3-0.3-0.6-0.4-0.9L158.1,60.4z"/>
		<path fill="#2C2255" d="M164.8,49c0-2.5-2.1-4.4-4.6-4.4c-2.5,0-4.4,2.1-4.4,4.6c0,2.5,2.1,4.4,4.6,4.4
			C162.8,53.5,164.8,51.5,164.8,49z"/>
		<path fill="#2C2255" d="M217.4,50.2L169,40c0.3,0.3,0.5,0.5,0.8,0.8c0.3,0.3,0.4,0.6,0.3,1c-0.3,0.9-0.6,1.7-0.9,2.6
			c-0.1,0.3-0.1,0.5,0,0.8c0.1,0.3,0.3,0.5,0.7,0.6c0.8,0.3,1.6,0.6,2.4,0.9c0.4,0.2,0.6,0.5,0.6,1c0,0.8,0,1.6,0,2.4
			c0,0.3-0.1,0.5-0.3,0.6c-0.4,0.2-0.8,0.5-1.2,0.6c-0.5,0.2-1.1,0.5-1.6,0.7c-0.2,0.1-0.3,0.2-0.3,0.4c-0.2,0.4-0.2,0.8,0,1.3
			c0.4,0.7,0.7,1.5,1,2.2c0.2,0.4,0.1,0.8-0.2,1.1c-0.6,0.5-1.1,1.1-1.6,1.6c-0.2,0.2-0.4,0.2-0.6,0.3c-0.3-0.1-0.6-0.1-0.8-0.2
			c-0.8-0.3-1.5-0.6-2.3-0.9c-0.2-0.1-0.3,0-0.5,0c-0.5,0.1-0.7,0.5-0.9,1c-0.2,0.7-0.6,1.5-0.9,2.2c-0.2,0.4-0.4,0.6-0.9,0.6
			c-0.7,0-1.4,0-2.2,0L165,66c0.4-0.6,0.7-1.2,1.1-1.9c0.4-0.7,1-1.1,1.8-1c1.8,0.2,3.5,0.4,5.3,0.6c0.4,0.1,0.6-0.1,1-0.2
			c0.8-0.5,1.1-1.1,1.2-2.1c0.1-1.5,0.4-2.9,0.6-4.4c0.1-0.9,0.6-1.4,1.5-1.5c1.3-0.3,2.7-0.6,4-1c0.8-0.2,1.4,0,1.9,0.6
			c0.7,0.9,1.5,1.9,2.2,2.8c0.2,0.3,0.4,0.5,0.6,0.8c0.4,0.8,1,1.1,1.9,1.2c0.5,0,0.8,0,1.1-0.3c1.4-1.1,2.8-2.1,4.2-3.2
			c0.6-0.4,1.2-0.4,1.8,0c1.2,0.7,2.4,1.5,3.7,2.2c0.7,0.4,1,0.9,0.9,1.7c-0.2,1.7-0.4,3.4-0.7,5.1c-0.1,0.6,0,1,0.4,1.5
			c0.4,0.6,0.8,0.8,1.5,0.9c1.6,0.2,3.2,0.4,4.8,0.7c0.8,0.1,1.3,0.6,1.5,1.5c0.3,1.5,0.7,2.9,1,4.3c0.1,0.5,0.1,1-0.3,1.3
			c-0.6,0.6-1.3,1.2-2,1.7c-0.9,0.7-1.7,1.3-2.6,1.9c-0.3,0.2-0.4,0.5-0.5,0.8c-0.3,0.9,0,1.6,0.6,2.3c1,1.1,1.8,2.4,2.7,3.6
			c0.5,0.7,0.5,1.4,0,2.1c-0.8,1.2-1.5,2.5-2.3,3.7c-0.2,0.4-0.6,0.6-0.9,0.9c-0.6,0-1.1,0-1.5-0.1c-1.5-0.2-3-0.4-4.6-0.6
			c-0.3-0.1-0.6,0.1-0.9,0.2c-0.9,0.5-1.2,1.2-1.3,2.1c-0.1,1.5-0.4,2.9-0.6,4.4c-0.1,0.8-0.6,1.3-1.4,1.5c-1.4,0.3-2.8,0.7-4.1,1
			c-0.8,0.2-1.3,0-1.8-0.6c-1-1.3-2.1-2.5-3-3.9c-0.6-0.9-1.5-0.9-2.3-1c-0.1,0-0.3,0.2-0.5,0.3c-1.4,1.1-2.9,2.2-4.3,3.2
			c-0.6,0.5-1.2,0.4-1.9,0c-1.2-0.7-2.4-1.5-3.6-2.1c-0.7-0.4-1-0.9-1-1.6l-4.5,1.9c0.3,0.2,0.7,0.4,1,0.6c0.4,0.2,0.5,0.5,0.5,0.9
			c-0.1,0.9-0.2,1.8-0.4,2.7c-0.1,0.3,0,0.5,0.2,0.8c0.2,0.3,0.4,0.4,0.8,0.5c0.8,0.1,1.7,0.2,2.5,0.3c0.4,0.1,0.7,0.3,0.8,0.8
			c0.2,0.8,0.4,1.5,0.6,2.3c0.1,0.3,0,0.5-0.2,0.7c-0.3,0.3-0.7,0.6-1,0.9c-0.5,0.4-0.9,0.7-1.4,1c-0.2,0.1-0.2,0.2-0.3,0.4
			c-0.1,0.5,0,0.8,0.3,1.2c0.5,0.6,1,1.3,1.4,1.9c0.3,0.4,0.3,0.7,0,1.1c-0.4,0.6-0.8,1.3-1.2,2c-0.1,0.2-0.3,0.3-0.5,0.5
			c-0.3,0-0.6,0-0.8,0c-0.8-0.1-1.6-0.2-2.4-0.3c-0.2,0-0.3,0-0.5,0.1c-0.5,0.3-0.6,0.6-0.7,1.1c-0.1,0.8-0.2,1.6-0.3,2.3
			c-0.1,0.4-0.3,0.7-0.8,0.8c-0.7,0.2-1.5,0.4-2.2,0.6c-0.4,0.1-0.7,0-1-0.3c-0.5-0.7-1.1-1.3-1.6-2.1c-0.3-0.5-0.8-0.5-1.2-0.5
			c-0.1,0-0.2,0.1-0.2,0.1c-0.8,0.6-1.5,1.1-2.3,1.7c-0.2,0.2-0.5,0.2-0.7,0.1l21.4,14.6c15.7-1.7,29.5-9.9,38.5-21.9
			c7-9.3,11.2-20.9,11.2-33.5C225.3,68.4,222.4,58.6,217.4,50.2z"/>
		<path fill="#2C2255" d="M187,86c4.5-1.1,7.2-5.7,6.2-10.2c-1.1-4.5-5.6-7.2-10.1-6.1c-4.5,1.1-7.2,5.7-6.2,10.2
			C178,84.4,182.5,87.1,187,86z"/>
		<path fill="#2C2255" d="M160.4,112.6c2.4-0.6,3.9-3.1,3.3-5.5c-0.6-2.4-3-3.9-5.4-3.2c-2.4,0.6-3.9,3.1-3.3,5.5
			C155.6,111.7,158,113.2,160.4,112.6z"/>
		<path fill="#F7941E" d="M110.4,78.9c0-29.4,21.9-53.8,50.3-58.1c-0.7,0-1.4-0.1-2.1-0.1c-31.9,0-57.8,26-57.8,58.2
			c0,32.1,25.9,58.2,57.8,58.2c0.7,0,1.4,0,2.1-0.1C132.2,132.7,110.4,108.2,110.4,78.9z"/>
		<path fill="#FFFFFF" d="M158.6,61.1c0.2,0.4,0.5,0.5,0.9,0.5c0,0,0.1,0,0.1,0l-1.2-1C158.4,60.8,158.5,61,158.6,61.1z"/>
	</g>
	<path fill="#FFFFFF" d="M172.8,47.7c0-0.5-0.2-0.8-0.6-1c-0.8-0.3-1.6-0.6-2.4-0.9c-0.3-0.1-0.5-0.3-0.7-0.6
		c-0.1-0.3-0.1-0.5,0-0.8c0.3-0.8,0.6-1.7,0.9-2.6c0.1-0.4,0-0.7-0.3-1c-0.3-0.2-0.5-0.5-0.8-0.8c-0.3-0.3-0.6-0.5-0.8-0.8
		c-0.3-0.3-0.6-0.4-0.9-0.2c-0.9,0.4-1.7,0.7-2.6,1.1c-0.2,0.1-0.4,0.1-0.6,0c-0.5-0.1-0.7-0.4-0.8-0.8c0-0.2-0.1-0.3-0.2-0.5
		c-0.3-0.6-0.5-1.2-0.8-1.7c-0.2-0.4-0.5-0.6-0.9-0.5c-0.7,0-1.5,0.1-2.2,0c-0.5,0-0.8,0.2-1,0.6c-0.3,0.7-0.6,1.5-0.9,2.2
		c-0.2,0.5-0.4,0.8-0.9,0.9c-0.2,0.1-0.3,0.1-0.5,0c-0.9-0.3-1.8-0.7-2.7-1c-0.4-0.1-0.7,0-1,0.3c-0.5,0.5-1,1.1-1.5,1.6
		c-0.4,0.3-0.4,0.7-0.2,1.1c0.3,0.7,0.6,1.5,1,2.2c0.2,0.4,0.3,0.8,0,1.3c-0.1,0.2-0.2,0.3-0.3,0.3c-0.5,0.2-1.1,0.4-1.6,0.7
		c-0.4,0.2-0.8,0.4-1.2,0.6c-0.3,0.1-0.4,0.4-0.4,0.7c0,0.8,0.1,1.5,0,2.3c0,0.5,0.2,0.9,0.7,1c0.9,0.3,1.7,0.7,2.6,1
		c0.1,0,0.2,0.1,0.2,0.1c0.2,0.4,0.5,0.7,0.2,1.3c-0.4,0.8-0.6,1.6-0.9,2.5c-0.2,0.4-0.1,0.8,0.3,1.1c0.6,0.5,1.1,1,1.6,1.6
		c0.3,0.3,0.6,0.4,1,0.2c0.9-0.4,1.8-0.8,2.6-1.1c0.1,0,0.2-0.1,0.3-0.1c0.4,0.2,0.9,0.2,1.1,0.8c0.1,0.3,0.3,0.7,0.4,1
		c0.1,0.3,0.3,0.6,0.4,0.9l1.2,1c0.7,0,1.4-0.1,2.2,0c0.5,0,0.7-0.2,0.9-0.6c0.3-0.7,0.6-1.5,0.9-2.2c0.2-0.5,0.4-0.8,0.9-1
		c0.2,0,0.3-0.1,0.5,0c0.8,0.3,1.5,0.6,2.3,0.9c0.2,0.1,0.5,0.1,0.8,0.2c0.2-0.1,0.4-0.2,0.6-0.3c0.5-0.5,1.1-1.1,1.6-1.6
		c0.4-0.3,0.4-0.7,0.2-1.1c-0.3-0.7-0.6-1.5-1-2.2c-0.2-0.4-0.3-0.8,0-1.3c0.1-0.2,0.2-0.3,0.3-0.4c0.5-0.2,1.1-0.4,1.6-0.7
		c0.4-0.2,0.8-0.4,1.2-0.6c0.2-0.1,0.3-0.4,0.3-0.6C172.8,49.3,172.8,48.5,172.8,47.7z M160.4,53.6c-2.5,0-4.5-1.9-4.6-4.4
		c0-2.5,1.9-4.5,4.4-4.6c2.5,0,4.5,1.9,4.6,4.4C164.8,51.5,162.8,53.5,160.4,53.6z"/>
	<path fill="#FFFFFF" d="M203.4,79.2c0.9-0.6,1.8-1.3,2.6-1.9c0.7-0.5,1.3-1.1,2-1.7c0.4-0.4,0.5-0.8,0.3-1.3
		c-0.4-1.4-0.8-2.9-1-4.3c-0.2-0.9-0.7-1.4-1.5-1.5c-1.6-0.2-3.2-0.5-4.8-0.7c-0.7-0.1-1.1-0.3-1.5-0.9c-0.3-0.5-0.5-0.9-0.4-1.5
		c0.3-1.7,0.5-3.4,0.7-5.1c0.1-0.8-0.2-1.3-0.9-1.7c-1.2-0.7-2.5-1.4-3.7-2.2c-0.6-0.4-1.2-0.4-1.8,0c-1.4,1-2.8,2.1-4.2,3.2
		c-0.4,0.3-0.7,0.3-1.1,0.3c-0.9,0-1.5-0.4-1.9-1.2c-0.2-0.3-0.4-0.6-0.6-0.8c-0.7-0.9-1.5-1.9-2.2-2.8c-0.5-0.6-1.1-0.8-1.9-0.6
		c-1.3,0.4-2.6,0.7-4,1c-0.9,0.2-1.4,0.7-1.5,1.5c-0.2,1.5-0.5,2.9-0.6,4.4c-0.1,0.9-0.4,1.6-1.2,2.1c-0.3,0.2-0.6,0.3-1,0.2
		c-1.8-0.2-3.5-0.4-5.3-0.6c-0.8-0.1-1.4,0.3-1.8,1c-0.4,0.6-0.7,1.2-1.1,1.9c-0.3,0.6-0.7,1.1-1,1.7c-0.5,0.8-0.5,1.4,0,2.1
		c0.9,1.2,1.7,2.4,2.7,3.6c0.6,0.7,0.8,1.4,0.6,2.3c-0.1,0.3-0.2,0.6-0.5,0.8c-0.9,0.6-1.8,1.3-2.6,1.9c-0.7,0.5-1.3,1.1-1.9,1.6
		c-0.4,0.4-0.5,0.9-0.4,1.5c0.4,1.4,0.7,2.8,1,4.2c0.2,1,0.7,1.5,1.6,1.6c1.7,0.2,3.4,0.5,5.1,0.7c0.2,0,0.4,0,0.5,0.1
		c0.5,0.7,1.1,1.2,0.9,2.2c-0.3,1.6-0.5,3.3-0.7,4.9c0,0.1,0,0.2,0,0.3c0,0.7,0.3,1.2,1,1.6c1.2,0.7,2.4,1.4,3.6,2.1
		c0.7,0.4,1.3,0.4,1.9,0c1.4-1.1,2.9-2.1,4.3-3.2c0.1-0.1,0.3-0.3,0.5-0.3c0.8,0.1,1.7,0,2.3,1c0.9,1.4,2,2.6,3,3.9
		c0.5,0.6,1.1,0.8,1.8,0.6c1.4-0.4,2.7-0.8,4.1-1c0.8-0.2,1.3-0.6,1.4-1.5c0.2-1.5,0.5-2.9,0.6-4.4c0.1-1,0.4-1.7,1.3-2.1
		c0.3-0.2,0.5-0.3,0.9-0.2c1.5,0.2,3,0.4,4.6,0.6c0.5,0.1,0.9,0,1.5,0.1c0.3-0.2,0.6-0.5,0.9-0.9c0.8-1.2,1.5-2.5,2.3-3.7
		c0.5-0.8,0.5-1.4,0-2.1c-0.9-1.2-1.7-2.4-2.7-3.6c-0.6-0.7-0.8-1.4-0.6-2.3C203,79.7,203.1,79.4,203.4,79.2z M187,86
		c-4.5,1.1-9-1.6-10.1-6.1c-1.1-4.5,1.7-9.1,6.2-10.2c4.5-1.1,9,1.6,10.1,6.1C194.3,80.3,191.5,84.9,187,86z"/>
</g>
<g>
	<path fill="#2D2255" d="M254.6,193.6h10.1v-16.2c0-4.3,0.1-7.1,0.4-8.3c0.6-2.4,1.6-4.2,3.1-5.6c1.5-1.4,3.2-2,5.3-2
		c1.6,0,2.9,0.4,4,1.2c1.1,0.8,1.8,2.1,2.3,3.7c0.4,1.7,0.7,4.8,0.7,9.5v17.7h10v-26.7c0-4.7-1.2-8.2-3.5-10.6
		c-2.8-2.8-6.1-4.2-10.1-4.2c-2.1,0-4.1,0.4-6.1,1.3c-2,0.9-4,2.1-6,3.8v-19.7h-10.1V193.6z M236.7,164.8c2.1,2.2,3.1,5.1,3.1,8.5
		c0,3.5-1.1,6.4-3.2,8.6c-2.1,2.3-4.7,3.4-7.8,3.4c-3.2,0-5.8-1.1-8-3.3c-2.1-2.2-3.2-5.1-3.2-8.7c0-3.5,1.1-6.4,3.2-8.5
		c2.1-2.2,4.8-3.3,8-3.3C232,161.5,234.6,162.6,236.7,164.8 M208.1,153.2v55.2h10.1v-19.1c2,1.9,4,3.2,6,4.1c2,0.8,4.2,1.2,6.5,1.2
		c5.2,0,9.8-2,13.6-6.1c3.8-4.1,5.7-9.1,5.7-15.1c0-6.2-1.8-11.4-5.5-15.4c-3.7-4-8.2-6-13.5-6c-2.4,0-4.7,0.5-6.8,1.4
		c-2.1,0.9-4.1,2.3-5.9,4.1v-4.5H208.1z M140.3,193.6h10.1v-18c0-3.9,0.3-6.7,1-8.5c0.7-1.8,1.7-3.2,3.1-4.2c1.4-1,2.9-1.5,4.6-1.5
		c1.5,0,2.8,0.4,3.9,1.2c1.1,0.8,1.9,2,2.4,3.6c0.5,1.6,0.8,4.2,0.8,7.9v19.6h10.2v-18.2c0-3.9,0.3-6.7,1-8.4
		c0.7-1.7,1.7-3.1,3.1-4.1c1.4-1,2.9-1.5,4.7-1.5c2.3,0,4,0.8,5.1,2.4c1.1,1.6,1.7,4.7,1.7,9.3v20.5h10.2v-23.7
		c0-4.9-0.5-8.4-1.4-10.5c-1-2.2-2.5-3.9-4.7-5.2c-2.2-1.3-4.7-2-7.6-2c-2.8,0-5.3,0.6-7.7,1.9c-2.3,1.2-4.3,3-5.9,5.4
		c-1.2-2.4-2.9-4.2-4.9-5.4c-2-1.2-4.3-1.9-6.8-1.9c-2.5,0-4.8,0.5-6.9,1.4c-2.1,0.9-4,2.4-5.8,4.3v-4.6h-10.1V193.6z"/>
	<path fill="#F2911A" d="M122.5,164.9c2.1,2.2,3.1,5,3.1,8.5c0,3.5-1.1,6.3-3.2,8.5c-2.1,2.2-4.8,3.3-7.9,3.3
		c-3.2,0-5.8-1.1-7.9-3.3c-2.1-2.2-3.1-5-3.1-8.5c0-3.4,1-6.2,3.1-8.4c2.1-2.2,4.7-3.3,7.9-3.3C117.8,161.7,120.5,162.8,122.5,164.9
		 M100.4,157.6c-4.6,4.2-7,9.5-7,15.8c0,5.9,2,10.9,6.2,15c4.1,4.1,9.1,6.2,14.8,6.2c3.9,0,7.5-0.9,10.8-2.8
		c3.3-1.9,5.9-4.5,7.8-7.8c1.9-3.3,2.8-6.9,2.8-10.7c0-3.8-0.9-7.3-2.8-10.6c-1.9-3.3-4.5-5.9-7.9-7.8c-3.4-1.9-6.9-2.9-10.8-2.9
		C109.1,152.1,104.5,154,100.4,157.6 M74.9,153.1c3.5,3.6,5.2,8,5.2,13.2c0,5.2-1.7,9.6-5.2,13.2c-3.5,3.6-7.7,5.4-12.6,5.4
		c-4.4,0-8.2-1.4-11.6-4.1c-4.3-3.5-6.5-8.3-6.5-14.3c0-5.4,1.7-9.9,5.2-13.4c3.4-3.5,7.7-5.3,12.8-5.3
		C67.1,147.7,71.4,149.5,74.9,153.1 M47.9,141.4c-4.4,2.6-7.9,6-10.4,10.4s-3.8,9.2-3.8,14.4c0,7.8,2.7,14.5,8.1,20.2
		c5.4,5.7,12.2,8.5,20.5,8.5c7.8,0,14.5-2.8,20-8.3c5.5-5.5,8.2-12.3,8.2-20.3c0-8.1-2.8-14.9-8.3-20.5c-5.6-5.6-12.2-8.4-20-8.4
		C57.1,137.6,52.4,138.8,47.9,141.4"/>
</g>
</svg>
